<?xml version="1.0" encoding="UTF-8" standalone="no"?>
<!-- Generator: Adobe Illustrator 24.2.0, SVG Export Plug-In . SVG Version: 6.00 Build 0)  -->

<svg
   xmlns:dc="http://purl.org/dc/elements/1.1/"
   xmlns:cc="http://creativecommons.org/ns#"
   xmlns:rdf="http://www.w3.org/1999/02/22-rdf-syntax-ns#"
   xmlns:svg="http://www.w3.org/2000/svg"
   xmlns="http://www.w3.org/2000/svg"
   xmlns:sodipodi="http://sodipodi.sourceforge.net/DTD/sodipodi-0.dtd"
   xmlns:inkscape="http://www.inkscape.org/namespaces/inkscape"
   version="1.1"
   id="Layer_1"
   inkscape:export-filename="\\NAS\home\Drive\Organizer\LuminaryHandbook\Design\WebAssets\logo-simple-180.png"
   inkscape:export-xdpi="92.6045"
   inkscape:export-ydpi="92.6045"
   inkscape:version="0.92.3 (2405546, 2018-03-11)"
   sodipodi:docname="logo-simple-2-01-white.svg"
   x="0px"
   y="0px"
   viewBox="0 0 196.7 52.9"
   style="enable-background:new 0 0 196.7 52.9;"
   xml:space="preserve"><metadata
   id="metadata65"><rdf:RDF><cc:Work
       rdf:about=""><dc:format>image/svg+xml</dc:format><dc:type
         rdf:resource="http://purl.org/dc/dcmitype/StillImage" /></cc:Work></rdf:RDF></metadata><defs
   id="defs63" /><sodipodi:namedview
   pagecolor="#ffffff"
   bordercolor="#666666"
   borderopacity="1"
   objecttolerance="10"
   gridtolerance="10"
   guidetolerance="10"
   inkscape:pageopacity="0"
   inkscape:pageshadow="2"
   inkscape:window-width="1920"
   inkscape:window-height="1057"
   id="namedview61"
   showgrid="false"
   inkscape:zoom="1.4590748"
   inkscape:cx="13.021951"
   inkscape:cy="26.450001"
   inkscape:window-x="-8"
   inkscape:window-y="-6"
   inkscape:window-maximized="1"
   inkscape:current-layer="Layer_1" />
<style
   type="text/css"
   id="style2">
	.st0{fill:#4C5559;stroke:#4C5559;stroke-width:0.3;}
</style>
<g
   id="g52"
   style="fill:#fbfbfb;fill-opacity:1;stroke:none">
	<path
   class="st0"
   d="M9,33.9c-0.6,0.2-1.5,0.4-2.4,0.4c-4.1,0-6.4-2.3-6.4-6.4V0h5.6v26.6c0,1.5,0.4,2.4,2.4,2.4c0.2,0,0.5,0,0.9,0   V33.9z"
   id="path4"
   style="fill:#fbfbfb;fill-opacity:1;stroke:none" />
	<path
   class="st0"
   d="M28.6,12.1h5.6v12.7c0,6.8-4.1,9.5-10.1,9.5s-10.1-2.7-10.1-9.5V12.1h5.6v11.2c0,3.6,0.7,5.6,4.6,5.6   s4.6-2,4.6-5.6V12.1z"
   id="path6"
   style="fill:#fbfbfb;fill-opacity:1;stroke:none" />
	<path
   class="st0"
   d="M68.7,33.7V22.1c0-4.4-2-5.1-4-5.1c-2.2,0-4.5,0.9-4.5,5v11.6h-5.6V22.1c0-4.4-2-5.1-4-5.1   c-2.2,0-4.5,0.9-4.5,5v11.6h-5.6V12.1h5.6v1.6c1.4-1,2.7-2,5.6-2c2.8,0,5.3,1,6.8,3.2c2-2.5,5-3.2,7.2-3.2c4.8,0,8.5,2.8,8.5,9.6   v12.5H68.7z"
   id="path8"
   style="fill:#fbfbfb;fill-opacity:1;stroke:none" />
	<path
   class="st0"
   d="M80,4.9c0-2,1.5-3.5,3.5-3.5c2,0,3.5,1.5,3.5,3.5s-1.5,3.5-3.5,3.5C81.5,8.5,80,6.9,80,4.9z M80.7,33.7V12.1   h5.6v21.6H80.7z"
   id="path10"
   style="fill:#fbfbfb;fill-opacity:1;stroke:none" />
	<path
   class="st0"
   d="M107.7,33.7V22.1c0-4.2-2.2-5.1-4.5-5.1c-2.2,0-4.5,0.9-4.5,5v11.6h-5.6V12.1h5.6v1.6c1.2-0.9,2.7-2,5.7-2   c4.7,0,8.8,2.8,8.8,9.6v12.5H107.7z"
   id="path12"
   style="fill:#fbfbfb;fill-opacity:1;stroke:none" />
	<path
   class="st0"
   d="M135.3,33.7v-1.4c-1.7,1.4-3.8,2-6,2c-6.4,0-11.5-5.1-11.5-11.3c0-6.3,5.1-11.3,11.5-11.3c2.2,0,4.2,0.6,6,2   v-1.6h5.6v21.6H135.3z M129.3,17c-3.3,0-6,2.7-6,5.9c0,3.2,2.7,6,6,6c3.3,0,6-2.7,6-6C135.3,19.8,132.6,17,129.3,17z"
   id="path14"
   style="fill:#fbfbfb;fill-opacity:1;stroke:none" />
	<path
   class="st0"
   d="M146.5,33.7V12.1h5.6v1.6c2.1-1.5,4.1-2,8.3-2V17c-7.1,0-8.3,2-8.3,5.7v10.9H146.5z"
   id="path16"
   style="fill:#fbfbfb;fill-opacity:1;stroke:none" />
	<g
   id="g34"
   style="fill:#fbfbfb;fill-opacity:1;stroke:none">
		<path
   class="st0"
   d="M49,52.7V49H45v3.7h-1.5v-8.4H45v3.3H49v-3.3h1.5v8.4H49z"
   id="path18"
   style="fill:#fbfbfb;fill-opacity:1;stroke:none" />
		<path
   class="st0"
   d="M60.9,52.7l-0.7-1.8h-3.6l-0.7,1.8h-1.6l3.4-8.4h1.5l3.4,8.4H60.9z M58.4,46.1l-1.3,3.3h2.6L58.4,46.1z"
   id="path20"
   style="fill:#fbfbfb;fill-opacity:1;stroke:none" />
		<path
   class="st0"
   d="M72.4,52.7l-4.6-6.4v6.4h-1.5v-8.4h1.9l4.3,6v-6H74v8.4H72.4z"
   id="path22"
   style="fill:#fbfbfb;fill-opacity:1;stroke:none" />
		<path
   class="st0"
   d="M78.6,52.7v-8.4H81c2.7,0,4.5,1.6,4.5,4.2c0,2.6-1.8,4.2-4.5,4.2H78.6z M81,51.3c1.7,0,3.1-0.7,3.1-2.8    s-1.4-2.8-3.1-2.8h-0.9v5.6H81z"
   id="path24"
   style="fill:#fbfbfb;fill-opacity:1;stroke:none" />
		<path
   class="st0"
   d="M89.7,52.7v-8.4h2.5c1.9,0,2.7,0.8,2.7,2.2c0,1-0.4,1.5-1.2,1.8c1,0.3,1.5,1.1,1.5,2.1c0,1.6-1.3,2.4-3,2.4    H89.7z M92.4,47.6c0.6,0,1-0.3,1-0.9c0-0.6-0.4-1-1-1h-1.3v1.9H92.4z M92.3,51.3c1.1,0,1.4-0.5,1.4-1.1S93.4,49,92.3,49h-1.2v2.3    H92.3z"
   id="path26"
   style="fill:#fbfbfb;fill-opacity:1;stroke:none" />
		<path
   class="st0"
   d="M103.2,52.8c-2.4,0-4.4-1.9-4.4-4.3c0-2.4,1.9-4.4,4.4-4.4c2.5,0,4.4,1.9,4.4,4.4    C107.6,50.9,105.6,52.8,103.2,52.8z M106.1,48.5c0-1.6-1.3-3-2.9-3c-1.6,0-2.9,1.4-2.9,3c0,1.6,1.3,3,2.9,3    C104.8,51.5,106.1,50.1,106.1,48.5z"
   id="path28"
   style="fill:#fbfbfb;fill-opacity:1;stroke:none" />
		<path
   class="st0"
   d="M115.5,52.8c-2.4,0-4.4-1.9-4.4-4.3c0-2.4,1.9-4.4,4.4-4.4c2.5,0,4.4,1.9,4.4,4.4    C119.9,50.9,117.9,52.8,115.5,52.8z M118.4,48.5c0-1.6-1.3-3-2.9-3c-1.7,0-2.9,1.4-2.9,3c0,1.6,1.3,3,2.9,3    C117.1,51.5,118.4,50.1,118.4,48.5z"
   id="path30"
   style="fill:#fbfbfb;fill-opacity:1;stroke:none" />
		<path
   class="st0"
   d="M128.9,52.7l-3.4-3.6v3.6H124v-8.4h1.5V48l3.2-3.7h1.9l-3.8,4.2l4.1,4.2H128.9z"
   id="path32"
   style="fill:#fbfbfb;fill-opacity:1;stroke:none" />
	</g>
	<g
   id="g50"
   style="fill:#fbfbfb;fill-opacity:1;stroke:none">
		<path
   class="st0"
   d="M171.3,36.8l-0.1,0.4C171.3,37,171.3,36.8,171.3,36.8L171.3,36.8z"
   id="path36"
   style="fill:#fbfbfb;fill-opacity:1;stroke:none" />
		<polygon
   class="st0"
   points="169.4,12.1 163.2,12.1 172.2,34.3 174.8,26.9   "
   id="polygon38"
   style="fill:#fbfbfb;fill-opacity:1;stroke:none" />
		<path
   class="st0"
   d="M168.4,39.1c-0.2,0-0.5,0-0.9,0v5c0.3,0.1,0.7,0.2,1.1,0.2l2.5-7C170.9,37.8,170.2,39.1,168.4,39.1z"
   id="path40"
   style="fill:#fbfbfb;fill-opacity:1;stroke:none" />
		<polygon
   class="st0"
   points="180.2,12.1 180.1,12.1 174.8,26.9 174.9,27   "
   id="polygon42"
   style="fill:#fbfbfb;fill-opacity:1;stroke:none" />
		<polygon
   class="st0"
   points="172.2,34.3 171.3,36.8 172.2,34.3   "
   id="polygon44"
   style="fill:#fbfbfb;fill-opacity:1;stroke:none" />
		<path
   class="st0"
   d="M185.7,12.1l-10.6,29.4c0.5-0.9,0.9-2.1,1.3-3.6L185.7,12.1z"
   id="path46"
   style="fill:#fbfbfb;fill-opacity:1;stroke:none" />
		<path
   class="st0"
   d="M180.2,12.1L174.9,27l0-0.1l-2.6,7.3l0,0l-0.9,2.5l0,0c0,0,0,0.2-0.1,0.4l-2.5,7c0.4,0.1,0.9,0.1,1.3,0.1    c2.7,0,4.1-1,5.1-2.8l10.6-29.4H180.2z"
   id="path48"
   style="fill:#fbfbfb;fill-opacity:1;stroke:none" />
	</g>
</g>
<g
   id="g58"
   style="fill:#fbfbfb;fill-opacity:1;stroke:none">
	<path
   class="st0"
   d="M191.9,12.1v0.6h-1.4V16h-0.6v-3.4h-1.4v-0.6H191.9z"
   id="path54"
   style="fill:#fbfbfb;fill-opacity:1;stroke:none" />
	<path
   class="st0"
   d="M196.7,12.1v4h-0.6v-2.3l0-1.1h0L195,16h-0.5l-1.2-3.4h0l0,1.1V16h-0.6v-4h1l0.8,2.3l0.3,0.9h0l0.3-0.9   l0.8-2.3H196.7z"
   id="path56"
   style="fill:#fbfbfb;fill-opacity:1;stroke:none" />
</g>
</svg>